<mxfile host="app.diagrams.net" modified="2023-06-06T13:47:19.552Z" agent="Mozilla/5.0 (Windows NT 10.0; Win64; x64) AppleWebKit/537.36 (KHTML, like Gecko) Chrome/114.0.0.0 Safari/537.36 Edg/114.0.1823.37" etag="HHM6z-Tw9jvGAF698miJ" version="21.3.7" type="device">
  <diagram name="Страница 1" id="EMjCmUkX7TJc9WOBUZ9t">
    <mxGraphModel dx="951" dy="521" grid="1" gridSize="10" guides="1" tooltips="1" connect="1" arrows="1" fold="1" page="1" pageScale="1" pageWidth="827" pageHeight="1169" math="0" shadow="0">
      <root>
        <mxCell id="0" />
        <mxCell id="1" parent="0" />
        <mxCell id="TwGbWNAm2Ye8SGMq4pmg-23" style="edgeStyle=orthogonalEdgeStyle;rounded=0;orthogonalLoop=1;jettySize=auto;html=1;entryX=0;entryY=0.5;entryDx=0;entryDy=0;" edge="1" parent="1" source="TwGbWNAm2Ye8SGMq4pmg-1" target="TwGbWNAm2Ye8SGMq4pmg-6">
          <mxGeometry relative="1" as="geometry" />
        </mxCell>
        <mxCell id="TwGbWNAm2Ye8SGMq4pmg-24" style="edgeStyle=orthogonalEdgeStyle;rounded=0;orthogonalLoop=1;jettySize=auto;html=1;entryX=0;entryY=0.5;entryDx=0;entryDy=0;" edge="1" parent="1" source="TwGbWNAm2Ye8SGMq4pmg-1" target="TwGbWNAm2Ye8SGMq4pmg-5">
          <mxGeometry relative="1" as="geometry">
            <Array as="points">
              <mxPoint x="175" y="250" />
            </Array>
          </mxGeometry>
        </mxCell>
        <mxCell id="TwGbWNAm2Ye8SGMq4pmg-25" style="edgeStyle=orthogonalEdgeStyle;rounded=0;orthogonalLoop=1;jettySize=auto;html=1;entryX=0.5;entryY=0;entryDx=0;entryDy=0;" edge="1" parent="1" source="TwGbWNAm2Ye8SGMq4pmg-1" target="TwGbWNAm2Ye8SGMq4pmg-8">
          <mxGeometry relative="1" as="geometry" />
        </mxCell>
        <mxCell id="TwGbWNAm2Ye8SGMq4pmg-26" style="edgeStyle=orthogonalEdgeStyle;rounded=0;orthogonalLoop=1;jettySize=auto;html=1;entryX=0.5;entryY=0;entryDx=0;entryDy=0;" edge="1" parent="1" source="TwGbWNAm2Ye8SGMq4pmg-1" target="TwGbWNAm2Ye8SGMq4pmg-7">
          <mxGeometry relative="1" as="geometry" />
        </mxCell>
        <mxCell id="TwGbWNAm2Ye8SGMq4pmg-1" value="Администратор" style="shape=umlActor;verticalLabelPosition=bottom;verticalAlign=top;html=1;outlineConnect=0;" vertex="1" parent="1">
          <mxGeometry x="160" y="310" width="30" height="60" as="geometry" />
        </mxCell>
        <mxCell id="TwGbWNAm2Ye8SGMq4pmg-5" value="Управлять заготовщиками" style="ellipse;whiteSpace=wrap;html=1;" vertex="1" parent="1">
          <mxGeometry x="250" y="210" width="120" height="80" as="geometry" />
        </mxCell>
        <mxCell id="TwGbWNAm2Ye8SGMq4pmg-6" value="Управлять сырьем" style="ellipse;whiteSpace=wrap;html=1;" vertex="1" parent="1">
          <mxGeometry x="330" y="300" width="120" height="80" as="geometry" />
        </mxCell>
        <mxCell id="TwGbWNAm2Ye8SGMq4pmg-7" value="Управлять сдатчикам" style="ellipse;whiteSpace=wrap;html=1;" vertex="1" parent="1">
          <mxGeometry x="200" y="440" width="120" height="80" as="geometry" />
        </mxCell>
        <mxCell id="TwGbWNAm2Ye8SGMq4pmg-8" value="Создать отчет" style="ellipse;whiteSpace=wrap;html=1;" vertex="1" parent="1">
          <mxGeometry x="30" y="440" width="120" height="80" as="geometry" />
        </mxCell>
        <mxCell id="TwGbWNAm2Ye8SGMq4pmg-9" value="Изменить заготовщика" style="ellipse;whiteSpace=wrap;html=1;" vertex="1" parent="1">
          <mxGeometry x="370" y="100" width="120" height="40" as="geometry" />
        </mxCell>
        <mxCell id="TwGbWNAm2Ye8SGMq4pmg-10" value="Удалить заготовщика" style="ellipse;whiteSpace=wrap;html=1;" vertex="1" parent="1">
          <mxGeometry x="420" y="170" width="120" height="40" as="geometry" />
        </mxCell>
        <mxCell id="TwGbWNAm2Ye8SGMq4pmg-11" value="Изменить сырье" style="ellipse;whiteSpace=wrap;html=1;" vertex="1" parent="1">
          <mxGeometry x="490" y="270" width="120" height="40" as="geometry" />
        </mxCell>
        <mxCell id="TwGbWNAm2Ye8SGMq4pmg-12" value="Удалить сырье" style="ellipse;whiteSpace=wrap;html=1;" vertex="1" parent="1">
          <mxGeometry x="490" y="330" width="120" height="40" as="geometry" />
        </mxCell>
        <mxCell id="TwGbWNAm2Ye8SGMq4pmg-13" value="Изменить сдатчика" style="ellipse;whiteSpace=wrap;html=1;" vertex="1" parent="1">
          <mxGeometry x="349" y="530" width="120" height="40" as="geometry" />
        </mxCell>
        <mxCell id="TwGbWNAm2Ye8SGMq4pmg-14" value="Удалить сдатчика" style="ellipse;whiteSpace=wrap;html=1;" vertex="1" parent="1">
          <mxGeometry x="270" y="565" width="120" height="40" as="geometry" />
        </mxCell>
        <mxCell id="TwGbWNAm2Ye8SGMq4pmg-19" value="Добавить заготовщика" style="ellipse;whiteSpace=wrap;html=1;" vertex="1" parent="1">
          <mxGeometry x="270" y="50" width="140" height="40" as="geometry" />
        </mxCell>
        <mxCell id="TwGbWNAm2Ye8SGMq4pmg-20" value="Добавить сырье" style="ellipse;whiteSpace=wrap;html=1;" vertex="1" parent="1">
          <mxGeometry x="490" y="390" width="120" height="40" as="geometry" />
        </mxCell>
        <mxCell id="TwGbWNAm2Ye8SGMq4pmg-21" value="Добавить сдатчика" style="ellipse;whiteSpace=wrap;html=1;" vertex="1" parent="1">
          <mxGeometry x="380" y="480" width="120" height="30" as="geometry" />
        </mxCell>
        <mxCell id="TwGbWNAm2Ye8SGMq4pmg-27" value="&amp;lt;&amp;lt;include&amp;gt;&amp;gt;" style="html=1;verticalAlign=bottom;labelBackgroundColor=none;endArrow=open;endFill=0;dashed=1;rounded=0;exitX=1;exitY=0;exitDx=0;exitDy=0;entryX=0;entryY=0;entryDx=0;entryDy=0;" edge="1" parent="1" source="TwGbWNAm2Ye8SGMq4pmg-7" target="TwGbWNAm2Ye8SGMq4pmg-21">
          <mxGeometry width="160" relative="1" as="geometry">
            <mxPoint x="320" y="450" as="sourcePoint" />
            <mxPoint x="480" y="450" as="targetPoint" />
          </mxGeometry>
        </mxCell>
        <mxCell id="TwGbWNAm2Ye8SGMq4pmg-28" value="&amp;lt;&amp;lt;include&amp;gt;&amp;gt;" style="html=1;verticalAlign=bottom;labelBackgroundColor=none;endArrow=open;endFill=0;dashed=1;rounded=0;exitX=0.96;exitY=0.737;exitDx=0;exitDy=0;entryX=0;entryY=0;entryDx=0;entryDy=0;exitPerimeter=0;" edge="1" parent="1" source="TwGbWNAm2Ye8SGMq4pmg-7" target="TwGbWNAm2Ye8SGMq4pmg-13">
          <mxGeometry x="0.0974" y="11" width="160" relative="1" as="geometry">
            <mxPoint x="312" y="462" as="sourcePoint" />
            <mxPoint x="407" y="495" as="targetPoint" />
            <mxPoint as="offset" />
          </mxGeometry>
        </mxCell>
        <mxCell id="TwGbWNAm2Ye8SGMq4pmg-29" value="&amp;lt;&amp;lt;include&amp;gt;&amp;gt;" style="html=1;verticalAlign=bottom;labelBackgroundColor=none;endArrow=open;endFill=0;dashed=1;rounded=0;exitX=0.5;exitY=1;exitDx=0;exitDy=0;entryX=0;entryY=0;entryDx=0;entryDy=0;" edge="1" parent="1" source="TwGbWNAm2Ye8SGMq4pmg-7" target="TwGbWNAm2Ye8SGMq4pmg-14">
          <mxGeometry x="0.5708" y="21" width="160" relative="1" as="geometry">
            <mxPoint x="322" y="472" as="sourcePoint" />
            <mxPoint x="417" y="505" as="targetPoint" />
            <mxPoint as="offset" />
          </mxGeometry>
        </mxCell>
        <mxCell id="TwGbWNAm2Ye8SGMq4pmg-30" value="&amp;lt;&amp;lt;include&amp;gt;&amp;gt;" style="html=1;verticalAlign=bottom;labelBackgroundColor=none;endArrow=open;endFill=0;dashed=1;rounded=0;exitX=0.819;exitY=0.875;exitDx=0;exitDy=0;entryX=0;entryY=0.5;entryDx=0;entryDy=0;exitPerimeter=0;" edge="1" parent="1" source="TwGbWNAm2Ye8SGMq4pmg-6" target="TwGbWNAm2Ye8SGMq4pmg-20">
          <mxGeometry x="0.476" y="11" width="160" relative="1" as="geometry">
            <mxPoint x="332" y="482" as="sourcePoint" />
            <mxPoint x="427" y="515" as="targetPoint" />
            <mxPoint as="offset" />
          </mxGeometry>
        </mxCell>
        <mxCell id="TwGbWNAm2Ye8SGMq4pmg-31" value="&amp;lt;&amp;lt;include&amp;gt;&amp;gt;" style="html=1;verticalAlign=bottom;labelBackgroundColor=none;endArrow=open;endFill=0;dashed=1;rounded=0;exitX=1;exitY=0.5;exitDx=0;exitDy=0;entryX=0;entryY=0.5;entryDx=0;entryDy=0;" edge="1" parent="1" source="TwGbWNAm2Ye8SGMq4pmg-6" target="TwGbWNAm2Ye8SGMq4pmg-12">
          <mxGeometry x="0.4118" y="7" width="160" relative="1" as="geometry">
            <mxPoint x="342" y="492" as="sourcePoint" />
            <mxPoint x="437" y="525" as="targetPoint" />
            <mxPoint as="offset" />
          </mxGeometry>
        </mxCell>
        <mxCell id="TwGbWNAm2Ye8SGMq4pmg-32" value="&amp;lt;&amp;lt;include&amp;gt;&amp;gt;" style="html=1;verticalAlign=bottom;labelBackgroundColor=none;endArrow=open;endFill=0;dashed=1;rounded=0;exitX=1;exitY=0;exitDx=0;exitDy=0;entryX=0;entryY=0.5;entryDx=0;entryDy=0;" edge="1" parent="1" source="TwGbWNAm2Ye8SGMq4pmg-6" target="TwGbWNAm2Ye8SGMq4pmg-11">
          <mxGeometry x="-0.3312" y="5" width="160" relative="1" as="geometry">
            <mxPoint x="352" y="502" as="sourcePoint" />
            <mxPoint x="447" y="535" as="targetPoint" />
            <mxPoint as="offset" />
          </mxGeometry>
        </mxCell>
        <mxCell id="TwGbWNAm2Ye8SGMq4pmg-33" value="&amp;lt;&amp;lt;include&amp;gt;&amp;gt;" style="html=1;verticalAlign=bottom;labelBackgroundColor=none;endArrow=open;endFill=0;dashed=1;rounded=0;exitX=0.997;exitY=0.431;exitDx=0;exitDy=0;entryX=0.023;entryY=0.691;entryDx=0;entryDy=0;exitPerimeter=0;entryPerimeter=0;" edge="1" parent="1" source="TwGbWNAm2Ye8SGMq4pmg-5" target="TwGbWNAm2Ye8SGMq4pmg-10">
          <mxGeometry x="-0.3233" y="12" width="160" relative="1" as="geometry">
            <mxPoint x="362" y="512" as="sourcePoint" />
            <mxPoint x="457" y="545" as="targetPoint" />
            <mxPoint as="offset" />
          </mxGeometry>
        </mxCell>
        <mxCell id="TwGbWNAm2Ye8SGMq4pmg-34" value="&amp;lt;&amp;lt;include&amp;gt;&amp;gt;" style="html=1;verticalAlign=bottom;labelBackgroundColor=none;endArrow=open;endFill=0;dashed=1;rounded=0;exitX=0.5;exitY=0;exitDx=0;exitDy=0;entryX=0;entryY=1;entryDx=0;entryDy=0;" edge="1" parent="1" source="TwGbWNAm2Ye8SGMq4pmg-5" target="TwGbWNAm2Ye8SGMq4pmg-9">
          <mxGeometry width="160" relative="1" as="geometry">
            <mxPoint x="372" y="522" as="sourcePoint" />
            <mxPoint x="467" y="555" as="targetPoint" />
          </mxGeometry>
        </mxCell>
        <mxCell id="TwGbWNAm2Ye8SGMq4pmg-35" value="&amp;lt;&amp;lt;include&amp;gt;&amp;gt;" style="html=1;verticalAlign=bottom;labelBackgroundColor=none;endArrow=open;endFill=0;dashed=1;rounded=0;exitX=0;exitY=0;exitDx=0;exitDy=0;entryX=0.343;entryY=1.001;entryDx=0;entryDy=0;entryPerimeter=0;" edge="1" parent="1" source="TwGbWNAm2Ye8SGMq4pmg-5" target="TwGbWNAm2Ye8SGMq4pmg-19">
          <mxGeometry width="160" relative="1" as="geometry">
            <mxPoint x="382" y="532" as="sourcePoint" />
            <mxPoint x="477" y="565" as="targetPoint" />
          </mxGeometry>
        </mxCell>
      </root>
    </mxGraphModel>
  </diagram>
</mxfile>
